<?xml version="1.0" encoding="utf-8"?>
<!-- Generator: Adobe Illustrator 18.0.0, SVG Export Plug-In . SVG Version: 6.00 Build 0)  -->
<!DOCTYPE svg PUBLIC "-//W3C//DTD SVG 1.1//EN" "http://www.w3.org/Graphics/SVG/1.1/DTD/svg11.dtd">
<svg version="1.1" id="Layer_1" xmlns="http://www.w3.org/2000/svg" xmlns:xlink="http://www.w3.org/1999/xlink" x="0px" y="0px"
	 viewBox="95 70 200 300" enable-background="new 0 0 1400 980" xml:space="preserve">
<g>
	
		<radialGradient id="SVGID_1_" cx="199.5199" cy="250.5079" r="186.4148" gradientTransform="matrix(1 0 0 1.4796 0 -120.1466)" gradientUnits="userSpaceOnUse">
		<stop  offset="0" style="stop-color:#FF0100"/>
		<stop  offset="1" style="stop-color:#550000"/>
	</radialGradient>
	<path fill="url(#SVGID_1_)" d="M313.1,454.3H85.9c-10.5,0-18.9-8.5-18.9-18.9V65.7c0-10.5,8.5-18.9,18.9-18.9h227.2
		c10.5,0,18.9,8.5,18.9,18.9v369.6C332,445.8,323.6,454.3,313.1,454.3z"/>
	<g>
		<polygon opacity="0.5" fill-rule="evenodd" clip-rule="evenodd" points="199.5,227.1 205,245 222.9,245 208.4,256 214,273.9 
			199.5,262.8 185.1,273.9 190.6,256 176.1,245 194,245 		"/>
		<polygon opacity="0.5" fill-rule="evenodd" clip-rule="evenodd" points="199.5,273.9 205,256 222.9,256 208.4,245 214,227.1 
			199.5,238.2 185.1,227.1 190.6,245 176.1,256 194,256 		"/>
		<polygon opacity="0.5" fill-rule="evenodd" clip-rule="evenodd" points="246.3,227.1 251.9,245 269.8,245 255.3,256 260.8,273.9 
			246.3,262.8 231.9,273.9 237.5,256 222.9,245 240.8,245 		"/>
		<polygon opacity="0.5" fill-rule="evenodd" clip-rule="evenodd" points="246.3,273.9 251.9,256 269.8,256 255.3,245 260.8,227.1 
			246.3,238.2 231.9,227.1 237.5,245 222.9,256 240.8,256 		"/>
		<polygon opacity="0.5" fill-rule="evenodd" clip-rule="evenodd" points="314.7,246.4 314.7,245 298.7,245 293.2,227.1 287.7,245 
			269.8,245 284.3,256 278.7,273.9 293.2,262.8 307.6,273.9 302.1,256 		"/>
		<polygon opacity="0.5" fill-rule="evenodd" clip-rule="evenodd" points="314.7,254.6 302.1,245 307.6,227.1 293.2,238.2 
			278.7,227.1 284.3,245 269.8,256 287.7,256 293.2,273.9 298.7,256 314.7,256 		"/>
		<polygon opacity="0.5" fill-rule="evenodd" clip-rule="evenodd" points="152.7,227.1 158.2,245 176.1,245 161.6,256 167.2,273.9 
			152.7,262.8 138.2,273.9 143.8,256 129.3,245 147.2,245 		"/>
		<polygon opacity="0.5" fill-rule="evenodd" clip-rule="evenodd" points="152.7,273.9 158.2,256 176.1,256 161.6,245 167.2,227.1 
			152.7,238.2 138.2,227.1 143.8,245 129.3,256 147.2,256 		"/>
		<polygon opacity="0.5" fill-rule="evenodd" clip-rule="evenodd" points="129.3,245 111.4,245 105.9,227.1 100.4,245 83.8,245 
			83.8,246 97,256 91.4,273.9 105.9,262.8 120.3,273.9 114.8,256 		"/>
		<polygon opacity="0.5" fill-rule="evenodd" clip-rule="evenodd" points="114.8,245 120.3,227.1 105.9,238.2 91.4,227.1 97,245 
			83.8,255 83.8,256 100.4,256 105.9,273.9 111.4,256 129.3,256 		"/>
		<polygon opacity="0.5" fill-rule="evenodd" clip-rule="evenodd" points="199.5,180.3 205,198.2 222.9,198.2 208.4,209.2 
			214,227.1 199.5,216 185.1,227.1 190.6,209.2 176.1,198.2 194,198.2 		"/>
		<polygon opacity="0.5" fill-rule="evenodd" clip-rule="evenodd" points="199.5,227.1 205,209.2 222.9,209.2 208.4,198.2 
			214,180.3 199.5,191.4 185.1,180.3 190.6,198.2 176.1,209.2 194,209.2 		"/>
		<polygon opacity="0.5" fill-rule="evenodd" clip-rule="evenodd" points="246.3,180.3 251.9,198.2 269.8,198.2 255.3,209.2 
			260.8,227.1 246.3,216 231.9,227.1 237.5,209.2 222.9,198.2 240.8,198.2 		"/>
		<polygon opacity="0.5" fill-rule="evenodd" clip-rule="evenodd" points="246.3,227.1 251.9,209.2 269.8,209.2 255.3,198.2 
			260.8,180.3 246.3,191.4 231.9,180.3 237.5,198.2 222.9,209.2 240.8,209.2 		"/>
		<polygon opacity="0.5" fill-rule="evenodd" clip-rule="evenodd" points="314.7,199.6 314.7,198.2 298.7,198.2 293.2,180.3 
			287.7,198.2 269.8,198.2 284.3,209.2 278.7,227.1 293.2,216 307.6,227.1 302.1,209.2 		"/>
		<polygon opacity="0.5" fill-rule="evenodd" clip-rule="evenodd" points="314.7,207.8 302.1,198.2 307.6,180.3 293.2,191.4 
			278.7,180.3 284.3,198.2 269.8,209.2 287.7,209.2 293.2,227.1 298.7,209.2 314.7,209.2 		"/>
		<polygon opacity="0.5" fill-rule="evenodd" clip-rule="evenodd" points="152.7,180.3 158.2,198.2 176.1,198.2 161.6,209.2 
			167.2,227.1 152.7,216 138.2,227.1 143.8,209.2 129.3,198.2 147.2,198.2 		"/>
		<polygon opacity="0.5" fill-rule="evenodd" clip-rule="evenodd" points="152.7,227.1 158.2,209.2 176.1,209.2 161.6,198.2 
			167.2,180.3 152.7,191.4 138.2,180.3 143.8,198.2 129.3,209.2 147.2,209.2 		"/>
		<polygon opacity="0.5" fill-rule="evenodd" clip-rule="evenodd" points="129.3,198.2 111.4,198.2 105.9,180.3 100.4,198.2 
			83.8,198.2 83.8,199.2 97,209.2 91.4,227.1 105.9,216 120.3,227.1 114.8,209.2 		"/>
		<polygon opacity="0.5" fill-rule="evenodd" clip-rule="evenodd" points="114.8,198.2 120.3,180.3 105.9,191.4 91.4,180.3 
			97,198.2 83.8,208.2 83.8,209.2 100.4,209.2 105.9,227.1 111.4,209.2 129.3,209.2 		"/>
		<polygon opacity="0.5" fill-rule="evenodd" clip-rule="evenodd" points="199.5,133.4 205,151.4 222.9,151.3 208.4,162.4 
			214,180.3 199.5,169.2 185.1,180.3 190.6,162.4 176.1,151.3 194,151.4 		"/>
		<polygon opacity="0.5" fill-rule="evenodd" clip-rule="evenodd" points="199.5,180.3 205,162.3 222.9,162.4 208.4,151.3 
			214,133.4 199.5,144.5 185.1,133.4 190.6,151.3 176.1,162.4 194,162.3 		"/>
		<polygon opacity="0.5" fill-rule="evenodd" clip-rule="evenodd" points="246.3,133.4 251.9,151.4 269.8,151.3 255.3,162.4 
			260.8,180.3 246.3,169.2 231.9,180.3 237.5,162.4 222.9,151.3 240.8,151.4 		"/>
		<polygon opacity="0.5" fill-rule="evenodd" clip-rule="evenodd" points="246.3,180.3 251.9,162.3 269.8,162.4 255.3,151.3 
			260.8,133.4 246.3,144.5 231.9,133.4 237.5,151.3 222.9,162.4 240.8,162.3 		"/>
		<polygon opacity="0.5" fill-rule="evenodd" clip-rule="evenodd" points="314.7,152.7 314.7,151.3 298.7,151.4 293.2,133.4 
			287.7,151.4 269.8,151.3 284.3,162.4 278.7,180.3 293.2,169.2 307.6,180.3 302.1,162.4 		"/>
		<polygon opacity="0.5" fill-rule="evenodd" clip-rule="evenodd" points="314.7,161 302.1,151.3 307.6,133.4 293.2,144.5 
			278.7,133.4 284.3,151.3 269.8,162.4 287.7,162.3 293.2,180.3 298.7,162.3 314.7,162.4 		"/>
		<polygon opacity="0.5" fill-rule="evenodd" clip-rule="evenodd" points="152.7,133.4 158.2,151.4 176.1,151.3 161.6,162.4 
			167.2,180.3 152.7,169.2 138.2,180.3 143.8,162.4 129.3,151.3 147.2,151.4 		"/>
		<polygon opacity="0.5" fill-rule="evenodd" clip-rule="evenodd" points="152.7,180.3 158.2,162.3 176.1,162.4 161.6,151.3 
			167.2,133.4 152.7,144.5 138.2,133.4 143.8,151.3 129.3,162.4 147.2,162.3 		"/>
		<polygon opacity="0.5" fill-rule="evenodd" clip-rule="evenodd" points="129.3,151.3 111.4,151.4 105.9,133.4 100.4,151.4 
			83.8,151.3 83.8,152.4 97,162.4 91.4,180.3 105.9,169.2 120.3,180.3 114.8,162.4 		"/>
		<polygon opacity="0.5" fill-rule="evenodd" clip-rule="evenodd" points="114.8,151.3 120.3,133.4 105.9,144.5 91.4,133.4 
			97,151.3 83.8,161.3 83.8,162.4 100.4,162.3 105.9,180.3 111.4,162.3 129.3,162.4 		"/>
		<polygon opacity="0.5" fill-rule="evenodd" clip-rule="evenodd" points="199.5,86.6 205,104.5 222.9,104.5 208.4,115.5 214,133.4 
			199.5,122.3 185.1,133.4 190.6,115.5 176.1,104.5 194,104.5 		"/>
		<polygon opacity="0.5" fill-rule="evenodd" clip-rule="evenodd" points="199.5,133.4 205,115.5 222.9,115.6 208.4,104.5 214,86.6 
			199.5,97.7 185.1,86.6 190.6,104.5 176.1,115.6 194,115.5 		"/>
		<polygon opacity="0.5" fill-rule="evenodd" clip-rule="evenodd" points="246.3,86.6 251.9,104.5 269.8,104.5 255.3,115.5 
			260.8,133.4 246.3,122.3 231.9,133.4 237.5,115.5 222.9,104.5 240.8,104.5 		"/>
		<polygon opacity="0.5" fill-rule="evenodd" clip-rule="evenodd" points="246.3,133.4 251.9,115.5 269.8,115.6 255.3,104.5 
			260.8,86.6 246.3,97.7 231.9,86.6 237.5,104.5 222.9,115.6 240.8,115.5 		"/>
		<polygon opacity="0.5" fill-rule="evenodd" clip-rule="evenodd" points="314.7,105.9 314.7,104.5 298.7,104.5 293.2,86.6 
			287.7,104.5 269.8,104.5 284.3,115.5 278.7,133.4 293.2,122.3 307.6,133.4 302.1,115.5 		"/>
		<polygon opacity="0.5" fill-rule="evenodd" clip-rule="evenodd" points="314.7,114.1 302.1,104.5 307.6,86.6 293.2,97.7 
			278.7,86.6 284.3,104.5 269.8,115.6 287.7,115.5 293.2,133.4 298.7,115.5 314.7,115.5 		"/>
		<polygon opacity="0.5" fill-rule="evenodd" clip-rule="evenodd" points="152.7,86.6 158.2,104.5 176.1,104.5 161.6,115.5 
			167.2,133.4 152.7,122.3 138.2,133.4 143.8,115.5 129.3,104.5 147.2,104.5 		"/>
		<polygon opacity="0.5" fill-rule="evenodd" clip-rule="evenodd" points="152.7,133.4 158.2,115.5 176.1,115.6 161.6,104.5 
			167.2,86.6 152.7,97.7 138.2,86.6 143.8,104.5 129.3,115.6 147.2,115.5 		"/>
		<polygon opacity="0.5" fill-rule="evenodd" clip-rule="evenodd" points="129.3,104.5 111.4,104.5 105.9,86.6 100.4,104.5 
			83.8,104.5 83.8,105.5 97,115.5 91.4,133.4 105.9,122.3 120.3,133.4 114.8,115.5 		"/>
		<polygon opacity="0.5" fill-rule="evenodd" clip-rule="evenodd" points="114.8,104.5 120.3,86.6 105.9,97.7 91.4,86.6 97,104.5 
			83.8,114.5 83.8,115.5 100.4,115.5 105.9,133.4 111.4,115.5 129.3,115.6 		"/>
		<polygon opacity="0.5" fill-rule="evenodd" clip-rule="evenodd" points="215.7,63.2 183.3,63.2 190.6,68.7 185.1,86.6 199.5,75.5 
			214,86.6 208.4,68.7 		"/>
		<polygon opacity="0.5" fill-rule="evenodd" clip-rule="evenodd" points="183.4,63.2 176.1,68.7 194,68.7 199.5,86.6 205,68.7 
			222.9,68.7 215.6,63.2 		"/>
		<polygon opacity="0.5" fill-rule="evenodd" clip-rule="evenodd" points="262.5,63.2 230.2,63.2 237.5,68.7 231.9,86.6 246.3,75.5 
			260.8,86.6 255.3,68.7 		"/>
		<polygon opacity="0.5" fill-rule="evenodd" clip-rule="evenodd" points="230.2,63.2 222.9,68.7 240.8,68.7 246.3,86.6 251.9,68.7 
			269.8,68.7 262.5,63.2 		"/>
		<path opacity="0.5" fill-rule="evenodd" clip-rule="evenodd" d="M305.9,65.8c-2.9-1.3-6-2.1-9.3-2.6H277l7.3,5.5l-5.6,17.9
			l14.5-11.1l14.5,11.1l-5.6-17.9L305.9,65.8z"/>
		<path opacity="0.5" fill-rule="evenodd" clip-rule="evenodd" d="M296.6,63.2h-19.6l-7.3,5.5l17.9,0l5.5,17.9l5.5-17.9l11.9,0
			C306.7,65.4,301.8,64,296.6,63.2z"/>
		<polygon opacity="0.5" fill-rule="evenodd" clip-rule="evenodd" points="168.9,63.2 136.5,63.2 143.8,68.7 138.2,86.6 152.7,75.5 
			167.2,86.6 161.6,68.7 		"/>
		<polygon opacity="0.5" fill-rule="evenodd" clip-rule="evenodd" points="136.6,63.2 129.3,68.7 147.2,68.7 152.7,86.6 158.2,68.7 
			176.1,68.7 168.8,63.2 		"/>
		<path opacity="0.5" fill-rule="evenodd" clip-rule="evenodd" d="M122.1,63.2H98.9c-0.2,0.2-0.5,0.3-0.8,0.4c-1,0.3-2.2,0.6-3.4,1
			c-0.1,0.6-0.4,1.2-0.9,1.7l3.2,2.4l-5.6,17.9l14.5-11.1l14.5,11.1l-5.6-17.9L122.1,63.2z"/>
		<path opacity="0.5" fill-rule="evenodd" clip-rule="evenodd" d="M122,63.2H98.9c-0.2,0.2-0.5,0.3-0.8,0.4c-1,0.3-2.2,0.6-3.4,1
			c-0.1,0.8-0.6,1.6-1.5,2.2c-1,0.6-1.9,1.3-2.8,2l9.9,0l5.5,17.9l5.5-17.9l17.9,0L122,63.2z"/>
		<polygon opacity="0.5" fill-rule="evenodd" clip-rule="evenodd" points="215.9,437.6 222.9,432.3 205,432.3 199.5,414.4 
			194,432.3 176.1,432.3 183.1,437.6 		"/>
		<polygon opacity="0.5" fill-rule="evenodd" clip-rule="evenodd" points="183.6,437.6 215.4,437.6 208.4,432.3 214,414.4 
			199.5,425.5 185.1,414.4 190.6,432.3 		"/>
		<polygon opacity="0.5" fill-rule="evenodd" clip-rule="evenodd" points="262.8,437.6 269.8,432.3 251.9,432.3 246.3,414.4 
			240.8,432.3 222.9,432.3 229.9,437.6 		"/>
		<polygon opacity="0.5" fill-rule="evenodd" clip-rule="evenodd" points="230.5,437.6 262.2,437.6 255.3,432.3 260.8,414.4 
			246.3,425.5 231.9,414.4 237.5,432.3 		"/>
		<path opacity="0.5" fill-rule="evenodd" clip-rule="evenodd" d="M298.7,432.3l-5.5-17.9l-5.5,17.9l-17.9,0l7,5.3h18.3
			c1.9-0.3,3.8-0.8,5.6-1.6c0.7-0.3,1.3-0.3,1.9-0.2c1.8-0.9,3.5-2,5.4-3.1c0.4-0.2,0.8-0.4,1.1-0.4c0,0,0,0,0,0L298.7,432.3z"/>
		<path opacity="0.5" fill-rule="evenodd" clip-rule="evenodd" d="M307.6,414.4l-14.5,11.1l-14.5-11.1l5.6,17.9l-7,5.3h17.8
			c1.9-0.3,3.8-0.8,5.6-1.6c0.7-0.3,1.3-0.3,1.9-0.2c0.8-0.4,1.6-0.9,2.5-1.4l-2.9-2.2L307.6,414.4z"/>
		<polygon opacity="0.5" fill-rule="evenodd" clip-rule="evenodd" points="169.1,437.6 176.1,432.3 158.2,432.3 152.7,414.4 
			147.2,432.3 129.3,432.3 136.3,437.6 		"/>
		<polygon opacity="0.5" fill-rule="evenodd" clip-rule="evenodd" points="136.8,437.6 168.6,437.6 161.6,432.3 167.2,414.4 
			152.7,425.5 138.2,414.4 143.8,432.3 		"/>
		<path opacity="0.5" fill-rule="evenodd" clip-rule="evenodd" d="M111.4,432.3l-5.5-17.9l-5.5,17.9l-11.2,0
			c0.2,0.2,0.5,0.5,0.7,0.8c0.4,0.5,0.8,1,1.3,1.4c0.2,0.2,0.4,0.4,0.6,0.5c0,0,0.2,0.1,0.4,0.2c5.2,2.3,11.7,2.3,17.5,2.3
			c0.3,0,0.6,0.1,0.9,0.1h11.9l7-5.3L111.4,432.3z"/>
		<path opacity="0.5" fill-rule="evenodd" clip-rule="evenodd" d="M92.7,435.5c5.1,2,11.3,2,16.8,2c0.3,0,0.6,0.1,0.9,0.1h11.4
			l-7-5.3l5.6-17.9l-14.5,11.1l-14.5-11.1l5.6,17.9L92.7,435.5z"/>
		<polygon opacity="0.5" fill-rule="evenodd" clip-rule="evenodd" points="199.5,367.6 205,385.5 222.9,385.5 208.4,396.5 
			214,414.4 199.5,403.3 185.1,414.4 190.6,396.5 176.1,385.5 194,385.5 		"/>
		<polygon opacity="0.5" fill-rule="evenodd" clip-rule="evenodd" points="199.5,414.4 205,396.5 222.9,396.5 208.4,385.5 
			214,367.6 199.5,378.7 185.1,367.6 190.6,385.5 176.1,396.5 194,396.5 		"/>
		<polygon opacity="0.5" fill-rule="evenodd" clip-rule="evenodd" points="246.3,367.6 251.9,385.5 269.8,385.5 255.3,396.5 
			260.8,414.4 246.3,403.3 231.9,414.4 237.5,396.5 222.9,385.5 240.8,385.5 		"/>
		<polygon opacity="0.5" fill-rule="evenodd" clip-rule="evenodd" points="246.3,414.4 251.9,396.5 269.8,396.5 255.3,385.5 
			260.8,367.6 246.3,378.7 231.9,367.6 237.5,385.5 222.9,396.5 240.8,396.5 		"/>
		<polygon opacity="0.5" fill-rule="evenodd" clip-rule="evenodd" points="314.7,386.9 314.7,385.5 298.7,385.5 293.2,367.6 
			287.7,385.5 269.8,385.5 284.3,396.5 278.7,414.4 293.2,403.3 307.6,414.4 302.1,396.5 		"/>
		<polygon opacity="0.5" fill-rule="evenodd" clip-rule="evenodd" points="314.7,395.1 302.1,385.5 307.6,367.6 293.2,378.7 
			278.7,367.6 284.3,385.5 269.8,396.5 287.7,396.5 293.2,414.4 298.7,396.5 314.7,396.5 		"/>
		<polygon opacity="0.5" fill-rule="evenodd" clip-rule="evenodd" points="152.7,367.6 158.2,385.5 176.1,385.5 161.6,396.5 
			167.2,414.4 152.7,403.3 138.2,414.4 143.8,396.5 129.3,385.5 147.2,385.5 		"/>
		<polygon opacity="0.5" fill-rule="evenodd" clip-rule="evenodd" points="152.7,414.4 158.2,396.5 176.1,396.5 161.6,385.5 
			167.2,367.6 152.7,378.7 138.2,367.6 143.8,385.5 129.3,396.5 147.2,396.5 		"/>
		<polygon opacity="0.5" fill-rule="evenodd" clip-rule="evenodd" points="129.3,385.5 111.4,385.5 105.9,367.6 100.4,385.5 
			83.8,385.5 83.8,386.5 97,396.5 91.4,414.4 105.9,403.3 120.3,414.4 114.8,396.5 		"/>
		<polygon opacity="0.5" fill-rule="evenodd" clip-rule="evenodd" points="114.8,385.5 120.3,367.6 105.9,378.7 91.4,367.6 
			97,385.5 83.8,395.5 83.8,396.5 100.4,396.5 105.9,414.4 111.4,396.5 129.3,396.5 		"/>
		<polygon opacity="0.5" fill-rule="evenodd" clip-rule="evenodd" points="199.5,320.7 205,338.7 222.9,338.6 208.4,349.7 
			214,367.6 199.5,356.5 185.1,367.6 190.6,349.7 176.1,338.6 194,338.7 		"/>
		<polygon opacity="0.5" fill-rule="evenodd" clip-rule="evenodd" points="199.5,367.6 205,349.7 222.9,349.7 208.4,338.6 
			214,320.7 199.5,331.8 185.1,320.7 190.6,338.6 176.1,349.7 194,349.7 		"/>
		<polygon opacity="0.5" fill-rule="evenodd" clip-rule="evenodd" points="246.3,320.7 251.9,338.7 269.8,338.6 255.3,349.7 
			260.8,367.6 246.3,356.5 231.9,367.6 237.5,349.7 222.9,338.6 240.8,338.7 		"/>
		<polygon opacity="0.5" fill-rule="evenodd" clip-rule="evenodd" points="246.3,367.6 251.9,349.7 269.8,349.7 255.3,338.6 
			260.8,320.7 246.3,331.8 231.9,320.7 237.5,338.6 222.9,349.7 240.8,349.7 		"/>
		<polygon opacity="0.5" fill-rule="evenodd" clip-rule="evenodd" points="314.7,340.1 314.7,338.6 298.7,338.7 293.2,320.7 
			287.7,338.7 269.8,338.6 284.3,349.7 278.7,367.6 293.2,356.5 307.6,367.6 302.1,349.7 		"/>
		<polygon opacity="0.5" fill-rule="evenodd" clip-rule="evenodd" points="314.7,348.3 302.1,338.6 307.6,320.7 293.2,331.8 
			278.7,320.7 284.3,338.6 269.8,349.7 287.7,349.7 293.2,367.6 298.7,349.7 314.7,349.7 		"/>
		<polygon opacity="0.5" fill-rule="evenodd" clip-rule="evenodd" points="152.7,320.7 158.2,338.7 176.1,338.6 161.6,349.7 
			167.2,367.6 152.7,356.5 138.2,367.6 143.8,349.7 129.3,338.6 147.2,338.7 		"/>
		<polygon opacity="0.5" fill-rule="evenodd" clip-rule="evenodd" points="152.7,367.6 158.2,349.7 176.1,349.7 161.6,338.6 
			167.2,320.7 152.7,331.8 138.2,320.7 143.8,338.6 129.3,349.7 147.2,349.7 		"/>
		<polygon opacity="0.5" fill-rule="evenodd" clip-rule="evenodd" points="129.3,338.6 111.4,338.7 105.9,320.7 100.4,338.7 
			83.8,338.6 83.8,339.7 97,349.7 91.4,367.6 105.9,356.5 120.3,367.6 114.8,349.7 		"/>
		<polygon opacity="0.5" fill-rule="evenodd" clip-rule="evenodd" points="114.8,338.6 120.3,320.7 105.9,331.8 91.4,320.7 
			97,338.6 83.8,348.7 83.8,349.7 100.4,349.7 105.9,367.6 111.4,349.7 129.3,349.7 		"/>
		<polygon opacity="0.5" fill-rule="evenodd" clip-rule="evenodd" points="199.5,273.9 205,291.8 222.9,291.8 208.4,302.9 
			214,320.7 199.5,309.7 185.1,320.7 190.6,302.9 176.1,291.8 194,291.8 		"/>
		<polygon opacity="0.5" fill-rule="evenodd" clip-rule="evenodd" points="199.5,320.7 205,302.8 222.9,302.9 208.4,291.8 
			214,273.9 199.5,285 185.1,273.9 190.6,291.8 176.1,302.9 194,302.8 		"/>
		<polygon opacity="0.5" fill-rule="evenodd" clip-rule="evenodd" points="246.3,273.9 251.9,291.8 269.8,291.8 255.3,302.9 
			260.8,320.7 246.3,309.7 231.9,320.7 237.5,302.9 222.9,291.8 240.8,291.8 		"/>
		<polygon opacity="0.5" fill-rule="evenodd" clip-rule="evenodd" points="246.3,320.7 251.9,302.8 269.8,302.9 255.3,291.8 
			260.8,273.9 246.3,285 231.9,273.9 237.5,291.8 222.9,302.9 240.8,302.8 		"/>
		<polygon opacity="0.5" fill-rule="evenodd" clip-rule="evenodd" points="314.7,293.2 314.7,291.8 298.7,291.8 293.2,273.9 
			287.7,291.8 269.8,291.8 284.3,302.9 278.7,320.7 293.2,309.7 307.6,320.7 302.1,302.9 		"/>
		<polygon opacity="0.5" fill-rule="evenodd" clip-rule="evenodd" points="314.7,301.4 302.1,291.8 307.6,273.9 293.2,285 
			278.7,273.9 284.3,291.8 269.8,302.9 287.7,302.8 293.2,320.7 298.7,302.8 314.7,302.9 		"/>
		<polygon opacity="0.5" fill-rule="evenodd" clip-rule="evenodd" points="152.7,273.9 158.2,291.8 176.1,291.8 161.6,302.9 
			167.2,320.7 152.7,309.7 138.2,320.7 143.8,302.9 129.3,291.8 147.2,291.8 		"/>
		<polygon opacity="0.5" fill-rule="evenodd" clip-rule="evenodd" points="152.7,320.7 158.2,302.8 176.1,302.9 161.6,291.8 
			167.2,273.9 152.7,285 138.2,273.9 143.8,291.8 129.3,302.9 147.2,302.8 		"/>
		<polygon opacity="0.5" fill-rule="evenodd" clip-rule="evenodd" points="129.3,291.8 111.4,291.8 105.9,273.9 100.4,291.8 
			83.8,291.8 83.8,292.8 97,302.9 91.4,320.7 105.9,309.7 120.3,320.7 114.8,302.9 		"/>
		<polygon opacity="0.5" fill-rule="evenodd" clip-rule="evenodd" points="114.8,291.8 120.3,273.9 105.9,285 91.4,273.9 97,291.8 
			83.8,301.8 83.8,302.9 100.4,302.8 105.9,320.7 111.4,302.8 129.3,302.9 		"/>
	</g>
	<path fill="none" stroke="#FFFFFF" stroke-width="3.8924" stroke-miterlimit="10" d="M297,437.6H102.1c-9.3,0-16.8-7.5-16.8-16.8
		V80.3c0-9.3,7.5-16.8,16.8-16.8H297c9.3,0,16.8,7.5,16.8,16.8v340.4C313.8,430,306.3,437.6,297,437.6z"/>
	
		<radialGradient id="SVGID_2_" cx="533.6185" cy="250.5079" r="186.4148" gradientTransform="matrix(1 0 0 1.4796 0 -120.1466)" gradientUnits="userSpaceOnUse">
		<stop  offset="0" style="stop-color:#FF0100"/>
		<stop  offset="1" style="stop-color:#550000"/>
	</radialGradient>
	
</g>
</svg>
